<svg width="100" height="100" viewBox="0 0 250 234" fill="#f8abeb" xmlns="http://www.w3.org/2000/svg">
    <path
        d="M93.981 94.1779C80.9721 86.464 71.6302 74.092 68.0057 59.7439C44.6979 49.0747 16.8259 58.6069 5.65679 81.0804C-5.54195 103.613 4.27338 130.658 27.6159 141.482C45.8508 149.937 67.6333 146.136 81.6591 132.088C78.9922 118.249 83.6213 104.043 93.981 94.1779ZM85.5342 143.251C73.9075 152.844 58.8266 157.613 43.5768 156.51C25.8781 174.615 26.6266 203.144 45.2952 220.347C64.0303 237.612 93.7149 236.927 111.59 218.82L111.946 219.171L111.59 218.82C125.546 204.683 128.539 183.513 119.051 166.298C104.603 164.483 92.04 155.841 85.5342 143.251ZM154.821 93.5763C165.396 103.25 170.299 117.373 167.911 131.248C183.141 130.093 198.234 134.796 209.898 144.348C235.254 139.745 252 116.213 247.368 91.7057C242.723 67.1189 218.314 50.8073 192.827 55.3109C172.927 58.8277 157.625 74.2656 154.821 93.5763ZM213.691 165.574L214.128 165.33L213.691 165.574C204.093 148.387 184.164 139.086 164.255 142.498C157.993 155.218 145.602 164.085 131.22 166.178C137.05 179.813 137.077 195.132 131.283 208.798C143.635 230.641 171.967 238.771 194.692 226.918C217.482 215.032 225.974 187.566 213.691 165.574ZM144.912 86.7599C148.489 72.4009 157.791 59.9833 170.795 52.2156C174.093 27.5405 156.139 4.87835 130.547 1.56453C104.869 -1.76097 81.2808 15.6568 77.8355 40.4279C75.1437 59.7789 85.5986 78.6132 103.772 87.1548C116.573 80.4139 131.996 80.2731 144.912 86.7599ZM157.439 124.15C157.347 106.712 142.635 92.6243 124.543 92.7202C106.451 92.8162 91.8899 107.06 91.9824 124.498C92.0749 141.935 106.786 156.024 124.878 155.928C142.971 155.832 157.532 141.589 157.439 124.15Z"
        fill="#f8abeb" />
</svg>